<?xml version="1.0" encoding="utf-8"?>
<svg viewBox="0 0 886 886" width="886" height="886" style="shape-rendering:geometricPrecision; text-rendering:geometricPrecision; image-rendering:optimizeQuality; fill-rule:evenodd; clip-rule:evenodd" xmlns="http://www.w3.org/2000/svg">
  <g>
    <path style="opacity:1" fill="#000000" d="M 82.5,49.5 C 322.834,49.3333 563.167,49.5 803.5,50C 820,54.5 830.5,65 835,81.5C 835.833,165.502 835.667,249.502 834.5,333.5C 810.218,322.37 788.218,307.87 768.5,290C 736.959,260.793 707.126,229.959 679,197.5C 677.241,183.215 675.908,168.882 675,154.5C 671.928,131.43 659.095,117.264 636.5,112C 623.818,110.891 612.152,113.891 601.5,121C 594,126.341 586.667,131.841 579.5,137.5C 565.987,132.331 551.987,129.664 537.5,129.5C 536.201,106.707 524.201,96.8734 501.5,100C 490.881,101.951 484.048,108.118 481,118.5C 480.501,124.491 480.334,130.491 480.5,136.5C 465.612,137.127 450.945,139.294 436.5,143C 390.688,155.826 346.021,171.826 302.5,191C 275.591,203.121 248.924,215.788 222.5,229C 192.721,247.761 165.554,269.927 141,295.5C 135.283,302.216 129.95,309.216 125,316.5C 121.672,322.817 119.339,329.484 118,336.5C 116.239,369.745 118.239,402.745 124,435.5C 129.756,461.445 139.423,485.779 153,508.5C 161.339,520.658 172.672,524.658 187,520.5C 188.967,520.542 190.801,521.042 192.5,522C 200.146,538.97 213.146,549.304 231.5,553C 263.302,555.1 294.969,558.434 326.5,563C 334.68,564.053 341.847,567.22 348,572.5C 362.993,616.145 377.993,659.811 393,703.5C 405.914,740.246 421.914,775.58 441,809.5C 446.755,819.489 454.255,827.989 463.5,835C 336.167,835.667 208.833,835.667 81.5,835C 65,830.5 54.5,820 50,803.5C 49.3333,563.167 49.3333,322.833 50,82.5C 54.3482,64.9858 65.1816,53.9858 82.5,49.5 Z"/>
  </g>
  <g>
    <path style="opacity:1" fill="#030303" d="M 474.5,216.5 C 481.175,216.334 487.842,216.5 494.5,217C 507.069,219.569 514.069,227.236 515.5,240C 515.36,244.946 513.36,248.946 509.5,252C 494.062,261.035 477.396,266.702 459.5,269C 444.571,271.259 429.571,271.926 414.5,271C 405.807,269.978 401.974,265.144 403,256.5C 414.128,240.064 429.295,228.897 448.5,223C 457.183,220.37 465.849,218.203 474.5,216.5 Z"/>
  </g>
  <g>
    <path style="opacity:1" fill="#060606" d="M 173.5,337.5 C 189.021,338.883 194.188,346.883 189,361.5C 180.635,369.432 172.302,369.432 164,361.5C 159.134,350.242 162.301,342.242 173.5,337.5 Z"/>
  </g>
</svg>